<?xml version="1.0" encoding="iso-8859-1"?>
<!-- Generator: Adobe Illustrator 19.0.0, SVG Export Plug-In . SVG Version: 6.00 Build 0)  -->
<svg version="1.1" id="Layer_1" xmlns="http://www.w3.org/2000/svg" xmlns:xlink="http://www.w3.org/1999/xlink" x="0px" y="0px"
	 viewBox="0 0 512.213 512.213" style="enable-background:new 0 0 512.213 512.213;" xml:space="preserve">
<g transform="translate(1 1)">
	<g>
		<g>
			<path d="M238.04,391.747h-8.533c-5.12,0-8.533,3.413-8.533,8.533c0,5.12,3.413,8.533,8.533,8.533h8.533
				c5.12,0,8.533-3.413,8.533-8.533C246.573,395.16,243.16,391.747,238.04,391.747z"/>
			<path d="M92.973,425.88c-11.947,0-20.48,7.68-23.893,11.947s-2.56,9.387,1.707,11.947c4.267,3.413,9.387,2.56,11.947-1.707
				c0,0,4.267-5.12,10.24-5.12c7.68,0,9.387,3.413,9.387,3.413c0.853,3.413,4.267,5.12,7.68,5.12c0.853,0,1.707,0,2.56-0.853
				c4.267-1.707,6.827-6.827,5.12-11.093C116.013,434.413,108.333,425.88,92.973,425.88z"/>
			<path d="M468.44,435.405V221.08h6.827c7.68,0,15.36-5.973,17.92-12.8c2.56-6.827,0.853-15.36-5.12-20.48L291.8,13.72
				c-20.48-19.627-52.907-19.627-73.387,0l-65.707,58.279V50.413h8.533c5.12,0,8.533-3.413,8.533-8.533V7.747
				c0-5.12-3.413-8.533-8.533-8.533H58.84c-5.12,0-8.533,3.413-8.533,8.533V41.88c0,5.12,3.413,8.533,8.533,8.533h8.533v97.273
				L22.147,187.8c-5.973,5.973-7.68,13.653-5.12,21.333c2.56,6.827,10.24,11.947,17.92,11.947h6.827v214.325
				c-24.322,3.782-42.667,24.905-42.667,50.209c0,6.827,1.707,13.653,4.267,20.48c0.853,3.413,4.267,5.12,7.68,5.12h163.84h29.013
				h102.4h29.013h163.84c3.413,0,5.973-1.707,7.68-5.12c2.56-6.827,4.267-13.653,4.267-20.48
				C511.107,460.31,492.762,439.187,468.44,435.405z M67.373,16.28h85.333v17.067h-8.533H75.907h-8.533V16.28z M84.44,84.547h17.067
				c5.12,0,8.533-3.413,8.533-8.533s-3.413-8.533-8.533-8.533H84.44V50.413h51.2v36.723l-51.2,45.412V84.547z M33.24,202.307
				c0-0.853,0-0.853,0.853-1.707L230.36,26.52c6.827-6.827,16.213-10.24,24.747-10.24s17.92,3.413,24.747,10.24L476.12,200.6
				c0.853,0,1.707,0.853,0.853,1.707s-1.707,0.853-1.707,0.853H34.947C34.093,203.16,33.24,203.16,33.24,202.307z M15.32,485.613
				c0-18.541,14.985-33.742,33.441-34.116c0.769,0.112,1.571,0.12,2.399-0.018c4.267-0.853,7.68-4.267,7.68-8.533
				c0-18.63,15.129-33.891,33.707-34.122c18.578,0.232,33.707,15.492,33.707,34.122c0,5.12,3.413,8.533,8.533,8.533
				c18.773,0,34.133,15.36,34.133,34.133c0,2.56,0,5.973-0.853,8.533H17.027C16.173,491.587,16.173,488.173,15.32,485.613z
				 M212.44,494.147V349.08c0-23.893,18.773-42.667,42.667-42.667c23.893,0,42.667,18.773,42.667,42.667v145.067H212.44z
				 M323.373,485.613c0,2.515,0.005,5.85,0.814,8.394c0.009,0.046,0.018,0.093,0.027,0.139h-9.374V349.08
				c0-33.28-26.453-59.733-59.733-59.733c-33.28,0-59.733,26.453-59.733,59.733v145.067h-9.374c0.009-0.046,0.019-0.093,0.027-0.139
				c0.809-2.544,0.814-5.879,0.814-8.394c0-25.6-18.773-46.933-43.52-50.347c-3.413-24.747-24.747-43.52-50.347-43.52
				c-12.8,0-24.747,4.267-34.133,12.8V221.08h392.533v183.467c-1.298-1.062-2.649-2.069-4.04-3.026
				c-8.439-6.154-18.854-9.774-30.094-9.774c-25.6,0-46.933,18.773-50.347,43.52C342.147,438.68,323.373,460.013,323.373,485.613z
				 M492.333,494.147H341.43c-0.659-2.901-0.99-5.882-0.99-8.533c0-18.773,15.36-34.133,34.133-34.133
				c5.12,0,8.533-3.413,8.533-8.533c0-18.63,15.129-33.891,33.707-34.122c18.578,0.232,33.707,15.492,33.707,34.122
				c0,5.12,3.413,8.533,8.533,8.533c18.773,0,34.133,15.36,34.133,34.133C493.187,488.173,493.187,491.587,492.333,494.147z"/>
			<path d="M417.24,425.88c-11.947,0-20.48,7.68-23.893,11.947s-2.56,9.387,1.707,11.947c4.267,3.413,9.387,1.707,11.947-1.707
				c0,0,4.267-5.12,10.24-5.12c7.68,0,9.387,3.413,9.387,3.413c0.853,3.413,4.267,5.12,7.68,5.12c0.853,0,1.707,0,2.56-0.853
				c4.267-1.707,6.827-6.827,5.12-11.093C440.28,434.413,432.6,425.88,417.24,425.88z"/>
			<path d="M178.307,323.48v-42.667V246.68c0-5.12-3.413-8.533-8.533-8.533H84.44c-5.12,0-8.533,3.413-8.533,8.533v34.133v42.667
				c-5.12,0-8.533,3.413-8.533,8.533c0,5.12,3.413,8.533,8.533,8.533h8.533h85.333h8.533c5.12,0,8.533-3.413,8.533-8.533
				C186.84,326.893,183.427,323.48,178.307,323.48z M92.973,255.213h68.267v17.067H92.973V255.213z M92.973,323.48v-34.133h25.6
				v8.533c0,5.12,3.413,8.533,8.533,8.533c5.12,0,8.533-3.413,8.533-8.533v-8.533h25.6v34.133H92.973z"/>
			<path d="M425.773,340.547h8.533c5.12,0,8.533-3.413,8.533-8.533c0-5.12-3.413-8.533-8.533-8.533v-42.667V246.68
				c0-5.12-3.413-8.533-8.533-8.533H340.44c-5.12,0-8.533,3.413-8.533,8.533v34.133v42.667c-5.12,0-8.533,3.413-8.533,8.533
				c0,5.12,3.413,8.533,8.533,8.533h8.533H425.773z M348.973,255.213h68.267v17.067h-68.267V255.213z M348.973,289.347h25.6
				c0,5.12,3.413,8.533,8.533,8.533s8.533-3.413,8.533-8.533h25.6v34.133h-68.267V289.347z"/>
		</g>
	</g>
</g>
<g>
</g>
<g>
</g>
<g>
</g>
<g>
</g>
<g>
</g>
<g>
</g>
<g>
</g>
<g>
</g>
<g>
</g>
<g>
</g>
<g>
</g>
<g>
</g>
<g>
</g>
<g>
</g>
<g>
</g>
</svg>
